<?xml version="1.0" encoding="UTF-8" standalone="no"?>
<!DOCTYPE svg PUBLIC "-//W3C//DTD SVG 1.1//EN" "http://www.w3.org/Graphics/SVG/1.1/DTD/svg11.dtd">
<svg width="100%" height="100%" viewBox="0 0 491 490" version="1.1" xmlns="http://www.w3.org/2000/svg" xmlns:xlink="http://www.w3.org/1999/xlink" xml:space="preserve" xmlns:serif="http://www.serif.com/" style="fill-rule:evenodd;clip-rule:evenodd;stroke-linejoin:round;stroke-miterlimit:2;">
    <g transform="matrix(1,0,0,1,-653.083,-301.583)">
        <g transform="matrix(4.16667,0,0,4.16667,0,0)">
            <g transform="matrix(1,0,0,1,131.52,-86.64)">
                <path d="M142.82,217.822C142.82,250.295 116.495,276.62 84.021,276.62C51.546,276.62 25.22,250.295 25.22,217.822C25.22,185.346 51.546,159.02 84.021,159.02C116.495,159.02 142.82,185.346 142.82,217.822Z" style="fill:rgb(244,212,157);fill-rule:nonzero;"/>
                <clipPath id="_clip1">
                    <path d="M142.82,217.822C142.82,250.295 116.495,276.62 84.021,276.62C51.546,276.62 25.22,250.295 25.22,217.822C25.22,185.346 51.546,159.02 84.021,159.02C116.495,159.02 142.82,185.346 142.82,217.822Z" clip-rule="nonzero"/>
                </clipPath>
                <g clip-path="url(#_clip1)">
                    <path d="M116.589,252.196C112.895,247.59 83.644,237.476 83.644,237.476C83.644,237.476 55.012,248.662 50.702,252.196C46.391,255.732 44.776,278.071 44.776,278.071L121.669,278.071C121.669,278.071 120.283,256.803 116.589,252.196Z" style="fill:rgb(32,44,49);fill-rule:nonzero;"/>
                    <path d="M92.712,242.875C92.712,242.875 91.591,248.303 83.653,248.303C75.714,248.303 74.596,242.875 74.596,242.875C74.596,242.875 76.803,238.486 74.596,233.333C72.388,228.181 95.413,227.137 92.712,233.333C90.011,239.53 92.712,242.875 92.712,242.875Z" style="fill:rgb(217,159,114);fill-rule:nonzero;"/>
                    <path d="M102.564,222.524C103.141,214.793 108.046,203.651 108.046,203.651C115.022,188.05 107.784,164.528 94.26,171.757C77.521,156.469 51.039,177.851 59.997,203.439C59.997,203.439 64.246,213.799 64.657,221.447C65.069,229.093 78.807,244.383 83.222,244.627C87.634,244.875 101.989,230.252 102.564,222.524Z" style="fill:rgb(61,37,39);fill-rule:nonzero;"/>
                    <path d="M109.252,208.118C109.252,212.204 106.351,217.822 104.398,217.822C102.446,217.822 100.862,214.505 100.862,210.418C100.862,206.331 102.861,204.222 104.398,203.018C106.291,201.538 109.252,203.018 109.252,208.118Z" style="fill:rgb(251,182,136);fill-rule:nonzero;"/>
                    <path d="M58.626,208.118C58.626,212.204 61.525,217.822 63.477,217.822C65.431,217.822 67.014,214.505 67.014,210.418C67.014,206.331 65.016,204.222 63.477,203.018C61.585,201.538 58.626,203.018 58.626,208.118Z" style="fill:rgb(251,182,136);fill-rule:nonzero;"/>
                    <path d="M84.021,175.711C70.289,175.711 64.219,185.334 64.219,199.685L64.219,217.657C64.219,230.156 78.66,240.845 83.222,240.845C87.783,240.845 103.823,228.346 103.823,216.506L103.823,199.685C103.823,185.334 97.752,175.711 84.021,175.711Z" style="fill:rgb(251,182,136);fill-rule:nonzero;"/>
                    <path d="M103.823,209.927L105.057,199.455C105.057,185.104 97.752,174.412 84.021,174.412C70.289,174.412 62.821,186.644 62.821,200.996L64.219,212.228C64.219,212.228 67.467,210.024 67.323,205.979C66.994,196.766 71.818,195.407 79.33,193.971C91.17,191.711 94.499,184.607 94.499,184.607C94.499,184.607 98.382,185.923 100.862,191.711C102.467,195.451 100.369,199.523 100.245,201.865C100.122,204.209 103.823,209.927 103.823,209.927Z" style="fill:rgb(61,37,39);fill-rule:nonzero;"/>
                    <path d="M85.305,233.354C84.097,233.434 81.878,233.639 81.137,233.354C83.359,236.764 81.137,241.596 81.137,241.596L85.305,241.596C85.305,241.596 83.49,237.473 85.305,233.354Z" style="fill:rgb(61,37,39);fill-rule:nonzero;"/>
                </g>
            </g>
        </g>
    </g>
</svg>
